<svg xmlns="http://www.w3.org/2000/svg" viewBox="0 0 750 500"><g id="freepik--background-complete--inject-12"><path d="M438.91,111.08h70.6s0-16.16-8.34-16.16a12.82,12.82,0,0,0-12.94,10s0-30.16-15.18-25.74c-14.36,4.19-16,23.5-16,23.5S454.48,93,446.7,98.46,438.91,111.08,438.91,111.08Z" style="fill:#ebebeb"></path><path d="M203.15,167.27h43s0-9.85-5.08-9.85a7.82,7.82,0,0,0-7.89,6.11s0-18.38-9.24-15.69c-8.76,2.55-9.74,14.32-9.74,14.32s-1.58-5.92-6.32-2.58S203.15,167.27,203.15,167.27Z" style="fill:#e0e0e0"></path><polygon points="290.3 376.62 274.61 440.46 282.89 440.46 297.46 376.62 290.3 376.62" style="fill:#e0e0e0"></polygon><polygon points="319.2 376.62 332.69 440.46 341.22 440.46 326.08 376.62 319.2 376.62" style="fill:#e0e0e0"></polygon><polygon points="279.61 324.95 288.63 372.31 298.88 372.31 289.24 324.95 279.61 324.95" style="fill:#e0e0e0"></polygon><polygon points="122.49 376.62 106.8 440.46 115.08 440.46 129.65 376.62 122.49 376.62" style="fill:#e0e0e0"></polygon><polygon points="151.39 376.62 164.88 440.46 173.41 440.46 158.27 376.62 151.39 376.62" style="fill:#e0e0e0"></polygon><polygon points="111.8 324.95 120.82 372.31 131.07 372.31 121.43 324.95 111.8 324.95" style="fill:#e0e0e0"></polygon><rect x="93.34" y="320.65" width="205.84" height="8.61" style="fill:#f0f0f0"></rect><rect x="96.21" y="338.28" width="205.84" height="8.61" style="fill:#f0f0f0"></rect><rect x="99.49" y="354.68" width="205.84" height="8.61" style="fill:#f0f0f0"></rect><rect x="112.47" y="372.31" width="219.78" height="8.61" style="fill:#f0f0f0"></rect><path d="M536.9,375.27a51.19,51.19,0,0,1-34.75-65.6C505.58,299.43,512.2,290.41,515,280c3.22-11.83,1.3-24.38-.68-36.47s-4-24.61-1-36.49,12.53-23,24.76-23.89c11.35-.78,21.83,7.62,26.56,18s4.77,22.2,3.66,33.52-3.26,22.62-2.58,34c1.37,23,14.24,44.61,12.73,67.58-.79,12-5.42,19.62-13.34,28.62-6.83,7.75-18.19,12.85-28.25,10.48" style="fill:#f0f0f0"></path><path d="M540.73,264.55c.34,0,0,39.44-.68,88.08s-1.56,88.07-1.9,88.07,0-39.44.67-88.09S540.39,264.54,540.73,264.55Z" style="fill:#e0e0e0"></path><path d="M562.68,288.49c.27.21-4.28,6.56-10.17,14.2s-10.87,13.65-11.14,13.44,4.28-6.56,10.17-14.19S562.42,288.28,562.68,288.49Z" style="fill:#e0e0e0"></path><path d="M540.29,314.15c-.21.27-4.79-2.95-10.24-7.2s-9.69-7.9-9.48-8.17,4.79,3,10.24,7.2S540.5,313.89,540.29,314.15Z" style="fill:#e0e0e0"></path><path d="M539.07,359.83c-.25.26-5.18-4.08-11.45-9.18s-11.51-9.07-11.31-9.36,5.77,3.26,12.08,8.41S539.29,359.6,539.07,359.83Z" style="fill:#e0e0e0"></path><path d="M564.6,331.6c.26.21-4.74,6.87-11.16,14.86s-11.85,14.31-12.12,14.1,4.73-6.87,11.16-14.87S564.33,331.38,564.6,331.6Z" style="fill:#e0e0e0"></path></g><g id="freepik--Floor--inject-12"><path d="M668.87,441.3c0,.15-131.58.27-293.86.27s-293.88-.12-293.88-.27S212.68,441,375,441,668.87,441.15,668.87,441.3Z" style="fill:#263238"></path></g><g id="freepik--Plant--inject-12"><path d="M491.6,396.46a8.94,8.94,0,0,0-6.21,3.25,15.77,15.77,0,0,0-3.12,6.42c-1.16,4.5-.38,9.79.94,14.25,4.85-1.78,7.8-7,9.13-9.72,2.11-4.33,3.29-13.43-.74-14.2" style="fill:#001293"></path><path d="M476.26,425.88a7.63,7.63,0,0,0,.3-7.66,10.15,10.15,0,0,0-6.15-4.85,4.26,4.26,0,0,0-3.6.2,3.29,3.29,0,0,0-1.23,3.07,6.68,6.68,0,0,0,1.43,3.13c2.39,3.18,5.29,5.82,9.25,6.11" style="fill:#001293"></path><path d="M476.22,441.32a3.36,3.36,0,0,0,.24-.95c.12-.61.28-1.51.44-2.62a33,33,0,0,0,.23-8.77,16.51,16.51,0,0,0-3.29-8.12,10.77,10.77,0,0,0-1.92-1.87,3.07,3.07,0,0,0-.83-.51,22.51,22.51,0,0,1,2.45,2.61,17.23,17.23,0,0,1,3.07,8,38.2,38.2,0,0,1-.08,8.66A31.41,31.41,0,0,0,476.22,441.32Z" style="fill:#455a64"></path><path d="M490.09,403.31a10,10,0,0,0-.71,1.44c-.44.94-1,2.31-1.76,4-1.45,3.4-3.38,8.14-5.38,13.43s-3.69,10.12-4.85,13.63c-.58,1.76-1,3.19-1.34,4.18a10.63,10.63,0,0,0-.42,1.55,8.41,8.41,0,0,0,.61-1.49c.39-1.06.89-2.44,1.5-4.12,1.25-3.48,3-8.28,5-13.57s3.87-10,5.23-13.47l1.6-4.08A8.21,8.21,0,0,0,490.09,403.31Z" style="fill:#455a64"></path><path d="M481.31,430.3a17.88,17.88,0,0,1,14.34-7.79c1.44,0,3.15.33,3.72,1.65S499,427,498,428a15.27,15.27,0,0,1-16.72,2.71" style="fill:#001293"></path><path d="M493.18,426.05a3.13,3.13,0,0,0-.94,0,7.39,7.39,0,0,0-1.09.14,13.81,13.81,0,0,0-1.42.29,18.74,18.74,0,0,0-3.57,1.3,22.23,22.23,0,0,0-3.92,2.49,21.93,21.93,0,0,0-3.24,3.33,19.15,19.15,0,0,0-2,3.23,11.73,11.73,0,0,0-.58,1.33,7.67,7.67,0,0,0-.36,1,3.06,3.06,0,0,0-.2.91c.1,0,.46-1.25,1.47-3.12a21.18,21.18,0,0,1,2-3.09,21.32,21.32,0,0,1,7-5.69,20.58,20.58,0,0,1,3.44-1.37C491.86,426.25,493.19,426.15,493.18,426.05Z" style="fill:#455a64"></path></g><g id="freepik--Device--inject-12"><path d="M434.94,344.6l-99.88-.46a21.75,21.75,0,0,1-21.65-21.85l1-250.4a21.77,21.77,0,0,1,21.86-21.67l99.88.46a21.76,21.76,0,0,1,21.66,21.85L456.8,322.94A21.75,21.75,0,0,1,434.94,344.6Z" style="fill:#263238"></path><path d="M435.54,59.46l-19.37-.09a4.81,4.81,0,0,0-4.72,4.89l0,3.51a4.81,4.81,0,0,1-4.72,4.9L369,72.49a4.82,4.82,0,0,1-4.68-4.94l0-3.51a4.83,4.83,0,0,0-4.68-4.94l-6.81,0L335.86,59a15.24,15.24,0,0,0-15.31,15.18l-1,244.41a15.23,15.23,0,0,0,15.16,15.3l99.68.46a15.23,15.23,0,0,0,15.31-15.17l1-244.41A15.23,15.23,0,0,0,435.54,59.46Z" style="fill:#fff"></path><rect x="374.36" y="89.42" width="25.72" height="4.72" transform="translate(0.43 -1.79) rotate(0.26)" style="fill:#455a64"></rect><path d="M346.4,121.13a3.89,3.89,0,0,0,2.31-3.59,3.65,3.65,0,1,0-7.28,0,3.89,3.89,0,0,0,2.32,3.62,5.82,5.82,0,0,0-4.92,4.23,8.25,8.25,0,0,0,5,2.72h2.24a8.25,8.25,0,0,0,5.13-2.74A5.72,5.72,0,0,0,346.4,121.13Z" style="fill:#455a64"></path><path d="M345,128.17c0-.06.73,0,2-.36a8.25,8.25,0,0,0,4.44-3,8.09,8.09,0,0,0,1.11-7.63,7.72,7.72,0,0,0-1.1-2,7.62,7.62,0,0,0-1.71-1.69,8,8,0,0,0-9.47,0,7.84,7.84,0,0,0-1.71,1.69,7.72,7.72,0,0,0-1.1,2,8.05,8.05,0,0,0,1.12,7.63,8.23,8.23,0,0,0,4.43,3c1.26.33,2,.3,2,.36a2.15,2.15,0,0,1-.53,0A6.73,6.73,0,0,1,343,128a8.19,8.19,0,0,1-4.67-3,8.31,8.31,0,0,1-1.62-3.55A8.49,8.49,0,0,1,337,117a8.48,8.48,0,0,1,3-4,8.44,8.44,0,0,1,10.08,0,8.13,8.13,0,0,1,1.8,1.81A7.9,7.9,0,0,1,353,117a8.39,8.39,0,0,1,.34,4.46,8.35,8.35,0,0,1-6.29,6.55,6.65,6.65,0,0,1-1.51.18A2.15,2.15,0,0,1,345,128.17Z" style="fill:#455a64"></path><path d="M441.79,135.63s.26,0,.74-.1a3.86,3.86,0,0,0,1.91-1,4,4,0,0,0,1.2-3.2c0-1.42,0-3,0-4.89,0-3.69,0-8.2,0-13.43,0-1.31,0-2.66,0-4.06a3.8,3.8,0,0,0-1.88-3.48c-1.23-.78-2.84-.44-4.39-.51h-4.82l-103,.08a3.7,3.7,0,0,0-3,1.55,3.64,3.64,0,0,0-.64,1.61c-.07.56,0,1.22,0,1.83v7.39q0,7.35,0,14.45a3.63,3.63,0,0,0,1.52,2.82,3.58,3.58,0,0,0,1.49.63,11.86,11.86,0,0,0,1.71.07h20.29l46.29.05,31.21.09,8.48.05,2.21,0,.75,0s-.26,0-.75,0l-2.21,0-8.48,0-31.21.08-46.29.06H332.56a10.93,10.93,0,0,1-1.79-.07,3.94,3.94,0,0,1-1.71-.72,4.17,4.17,0,0,1-1.73-3.2q0-7.12,0-14.48V110c0-.63,0-1.22.05-1.9a4,4,0,0,1,.73-1.84,4.18,4.18,0,0,1,3.42-1.77l103,.08h7.14a4.12,4.12,0,0,1,4.26,4.34c0,1.4,0,2.75,0,4.06,0,5.23,0,9.74-.05,13.43,0,1.84,0,3.47,0,4.89a4.11,4.11,0,0,1-1.29,3.28,3.81,3.81,0,0,1-2,1A3,3,0,0,1,441.79,135.63Z" style="fill:#e0e0e0"></path><rect x="360.98" y="112.79" width="29.09" height="2.18" style="fill:#455a64"></rect><rect x="360.98" y="125.12" width="50.96" height="2.18" style="fill:#455a64"></rect><rect x="360.98" y="118.81" width="73.85" height="2.18" style="fill:#455a64"></rect><path d="M346.4,199.34a3.89,3.89,0,0,0,2.31-3.59,3.65,3.65,0,1,0-7.28,0,3.89,3.89,0,0,0,2.32,3.62,5.82,5.82,0,0,0-4.92,4.23,8.25,8.25,0,0,0,5,2.72h2.24a8.25,8.25,0,0,0,5.13-2.74A5.72,5.72,0,0,0,346.4,199.34Z" style="fill:#455a64"></path><path d="M345,206.38c0-.06.73,0,2-.36a8.25,8.25,0,0,0,4.44-3,8.09,8.09,0,0,0,1.11-7.63,7.72,7.72,0,0,0-1.1-2,7.62,7.62,0,0,0-1.71-1.69,8,8,0,0,0-9.47,0,7.84,7.84,0,0,0-1.71,1.69,7.72,7.72,0,0,0-1.1,2A8.05,8.05,0,0,0,338.6,203a8.23,8.23,0,0,0,4.43,3c1.26.33,2,.3,2,.36a2.15,2.15,0,0,1-.53,0,6.19,6.19,0,0,1-1.52-.18,8.19,8.19,0,0,1-4.67-3,8.31,8.31,0,0,1-1.62-3.55,8.49,8.49,0,0,1,.34-4.46,8.48,8.48,0,0,1,3-4,8.44,8.44,0,0,1,10.08,0,8.13,8.13,0,0,1,1.8,1.81,7.9,7.9,0,0,1,1.15,2.16,8.39,8.39,0,0,1,.34,4.46,8.35,8.35,0,0,1-6.29,6.55,6.65,6.65,0,0,1-1.51.18A2.15,2.15,0,0,1,345,206.38Z" style="fill:#455a64"></path><path d="M441.79,213.84s.26,0,.74-.1a3.86,3.86,0,0,0,1.91-1,4,4,0,0,0,1.2-3.2c0-1.42,0-3.05,0-4.89,0-3.69,0-8.2,0-13.43,0-1.31,0-2.66,0-4.06a3.8,3.8,0,0,0-1.88-3.48c-1.23-.78-2.84-.44-4.39-.51h-4.82l-103,.08a3.7,3.7,0,0,0-3,1.55,3.64,3.64,0,0,0-.64,1.61c-.07.56,0,1.22,0,1.83v7.39q0,7.35,0,14.45a3.63,3.63,0,0,0,1.52,2.82,3.58,3.58,0,0,0,1.49.63,11.86,11.86,0,0,0,1.71.07h20.29l46.29.05,31.21.09,8.48,0,2.21,0,.75,0s-.26,0-.75,0l-2.21,0-8.48.05-31.21.08-46.29.06H332.56a10.93,10.93,0,0,1-1.79-.07,3.94,3.94,0,0,1-1.71-.72,4.17,4.17,0,0,1-1.73-3.2q0-7.12,0-14.48v-7.39c0-.63,0-1.22.05-1.9a4,4,0,0,1,.73-1.84,4.21,4.21,0,0,1,3.42-1.77l103,.08h7.14a4.12,4.12,0,0,1,4.26,4.34c0,1.4,0,2.75,0,4.06,0,5.23,0,9.74-.05,13.43,0,1.84,0,3.47,0,4.89a4.11,4.11,0,0,1-1.29,3.28,3.81,3.81,0,0,1-2,1A3,3,0,0,1,441.79,213.84Z" style="fill:#e0e0e0"></path><rect x="360.4" y="191" width="29.09" height="2.18" style="fill:#455a64"></rect><rect x="360.98" y="203.33" width="50.96" height="2.18" style="fill:#455a64"></rect><rect x="360.98" y="197.02" width="73.85" height="2.18" style="fill:#455a64"></rect><path d="M346.4,238.44a3.88,3.88,0,0,0,2.31-3.58,3.65,3.65,0,1,0-7.28,0,3.88,3.88,0,0,0,2.32,3.62,5.82,5.82,0,0,0-4.92,4.23,8.2,8.2,0,0,0,5,2.72h2.24a8.2,8.2,0,0,0,5.13-2.74A5.73,5.73,0,0,0,346.4,238.44Z" style="fill:#455a64"></path><path d="M345,245.48c0-.06.73,0,2-.35a8.28,8.28,0,0,0,4.44-3,8.06,8.06,0,0,0,1.11-7.62,7.56,7.56,0,0,0-1.1-2,7.22,7.22,0,0,0-1.71-1.69,8,8,0,0,0-9.47,0,7.42,7.42,0,0,0-1.71,1.69,7.56,7.56,0,0,0-1.1,2,8.05,8.05,0,0,0,1.12,7.63,8.29,8.29,0,0,0,4.43,3c1.26.33,2,.29,2,.35a1.8,1.8,0,0,1-.53,0,6.3,6.3,0,0,1-1.52-.19,8.16,8.16,0,0,1-4.67-3,8.36,8.36,0,0,1-1.62-3.55,8.53,8.53,0,0,1,.34-4.47,8.48,8.48,0,0,1,3-4,8.46,8.46,0,0,1,10.08,0,8.46,8.46,0,0,1,2.95,4,8.44,8.44,0,0,1-1.27,8,8.21,8.21,0,0,1-4.68,3,6.23,6.23,0,0,1-1.51.19A1.8,1.8,0,0,1,345,245.48Z" style="fill:#455a64"></path><path d="M441.79,252.94s.26,0,.74-.1a3.91,3.91,0,0,0,1.91-1,4,4,0,0,0,1.2-3.2c0-1.42,0-3.06,0-4.9,0-3.69,0-8.2,0-13.43,0-1.3,0-2.66,0-4.06a3.81,3.81,0,0,0-1.88-3.48c-1.23-.78-2.84-.44-4.39-.51h-4.82l-103,.08a3.67,3.67,0,0,0-3,1.55,3.61,3.61,0,0,0-.64,1.6c-.07.56,0,1.22,0,1.83v7.4q0,7.34,0,14.45a3.63,3.63,0,0,0,1.52,2.81,3.47,3.47,0,0,0,1.49.64,11.9,11.9,0,0,0,1.71.06h20.29l46.29.06,31.21.08,8.48,0,2.21,0,.75,0-.75,0-2.21,0-8.48,0-31.21.09-46.29.05H332.56a13.72,13.72,0,0,1-1.79-.07,4.08,4.08,0,0,1-1.71-.73,4.14,4.14,0,0,1-1.73-3.2q0-7.11,0-14.47v-7.4c0-.63,0-1.22.05-1.9a4,4,0,0,1,.73-1.83,4.18,4.18,0,0,1,3.42-1.77l103,.07h7.14a4.07,4.07,0,0,1,2.24.57,4.14,4.14,0,0,1,2,3.76c0,1.4,0,2.76,0,4.06,0,5.23,0,9.74-.05,13.43,0,1.84,0,3.48,0,4.9a4.12,4.12,0,0,1-1.29,3.28,4,4,0,0,1-2,1A2.66,2.66,0,0,1,441.79,252.94Z" style="fill:#e0e0e0"></path><rect x="360.98" y="230.11" width="29.09" height="2.18" style="fill:#455a64"></rect><rect x="360.98" y="242.43" width="50.96" height="2.18" style="fill:#455a64"></rect><rect x="360.98" y="236.12" width="73.85" height="2.18" style="fill:#455a64"></rect><path d="M346.4,277.55a3.89,3.89,0,0,0,2.31-3.59,3.65,3.65,0,1,0-7.28,0,3.89,3.89,0,0,0,2.32,3.62,5.82,5.82,0,0,0-4.92,4.23,8.25,8.25,0,0,0,5,2.72h2.24a8.25,8.25,0,0,0,5.13-2.74A5.72,5.72,0,0,0,346.4,277.55Z" style="fill:#455a64"></path><path d="M345,284.59c0-.06.73,0,2-.36a8.25,8.25,0,0,0,4.44-3,8.09,8.09,0,0,0,1.11-7.63,7.72,7.72,0,0,0-1.1-2,7.62,7.62,0,0,0-1.71-1.69,8,8,0,0,0-9.47,0,7.84,7.84,0,0,0-1.71,1.69,7.72,7.72,0,0,0-1.1,2,8.05,8.05,0,0,0,1.12,7.63,8.23,8.23,0,0,0,4.43,3c1.26.33,2,.3,2,.36a2.15,2.15,0,0,1-.53,0,6.19,6.19,0,0,1-1.52-.18,8.19,8.19,0,0,1-4.67-3,8.31,8.31,0,0,1-1.62-3.55,8.49,8.49,0,0,1,.34-4.46,8.48,8.48,0,0,1,3-4,8.48,8.48,0,0,1,10.08,0,8.13,8.13,0,0,1,1.8,1.81,7.9,7.9,0,0,1,1.15,2.16,8.39,8.39,0,0,1,.34,4.46,8.35,8.35,0,0,1-6.29,6.55,6.12,6.12,0,0,1-1.51.18A2.15,2.15,0,0,1,345,284.59Z" style="fill:#455a64"></path><path d="M441.79,292.05s.26,0,.74-.1a3.86,3.86,0,0,0,1.91-1,4,4,0,0,0,1.2-3.2c0-1.42,0-3.05,0-4.89,0-3.69,0-8.2,0-13.43,0-1.31,0-2.66,0-4.06a3.8,3.8,0,0,0-1.88-3.48c-1.23-.78-2.84-.44-4.39-.51h-4.82l-103,.07a3.7,3.7,0,0,0-3,1.55,3.64,3.64,0,0,0-.64,1.61c-.07.56,0,1.22,0,1.83v7.39q0,7.35,0,14.45a3.63,3.63,0,0,0,1.52,2.82,3.58,3.58,0,0,0,1.49.63,10.58,10.58,0,0,0,1.71.07h20.29l46.29.05,31.21.09,8.48.05,2.21,0,.75,0s-.26,0-.75,0l-2.21,0-8.48,0-31.21.08-46.29.06H332.56a10.93,10.93,0,0,1-1.79-.07,3.94,3.94,0,0,1-1.71-.72,4.17,4.17,0,0,1-1.73-3.2q0-7.12,0-14.48v-7.39c0-.63,0-1.22.05-1.9a4,4,0,0,1,.73-1.84,4.21,4.21,0,0,1,3.42-1.77l103,.08h7.14a4.25,4.25,0,0,1,2.24.57,4.15,4.15,0,0,1,2,3.77c0,1.4,0,2.75,0,4.06,0,5.23,0,9.74-.05,13.43,0,1.84,0,3.47,0,4.89a4.11,4.11,0,0,1-1.29,3.28,3.81,3.81,0,0,1-2,1A3,3,0,0,1,441.79,292.05Z" style="fill:#e0e0e0"></path><rect x="360.98" y="269.21" width="29.09" height="2.18" style="fill:#455a64"></rect><rect x="360.98" y="281.54" width="50.96" height="2.18" style="fill:#455a64"></rect><rect x="360.98" y="275.23" width="73.85" height="2.18" style="fill:#455a64"></rect><path d="M379.64,311.24a2.06,2.06,0,1,1-2.05-2.2A2.13,2.13,0,0,1,379.64,311.24Z" style="fill:#455a64"></path><path d="M386,311.27a2.06,2.06,0,1,1-2.05-2.2A2.12,2.12,0,0,1,386,311.27Z" style="fill:#455a64"></path><path d="M392.38,311.3a2.06,2.06,0,1,1-2-2.2A2.12,2.12,0,0,1,392.38,311.3Z" style="fill:#455a64"></path></g><g id="freepik--Character--inject-12"><rect x="285.46" y="139.3" width="118.15" height="30.86" rx="3.93" transform="matrix(1, -0.07, 0.07, 1, -10.24, 25.18)" style="fill:#001293"></rect><rect x="318.44" y="148.14" width="29.09" height="2.18" transform="translate(-9.87 24.33) rotate(-4.12)" style="fill:#fafafa"></rect><rect x="319.3" y="159.65" width="50.96" height="2.18" transform="translate(-10.67 25.21) rotate(-4.12)" style="fill:#fafafa"></rect><rect x="318.82" y="152.53" width="73.85" height="2.18" transform="matrix(1, -0.07, 0.07, 1, -10.13, 25.98)" style="fill:#fafafa"></rect><path d="M304.45,158.55a3.86,3.86,0,0,0,2.05-3.74,3.65,3.65,0,1,0-7.26.49,3.89,3.89,0,0,0,2.58,3.44,5.83,5.83,0,0,0-4.61,4.57,8.15,8.15,0,0,0,5.23,2.35l2.23-.15a8.26,8.26,0,0,0,4.92-3.1A5.74,5.74,0,0,0,304.45,158.55Z" style="fill:#fafafa"></path><path d="M303.59,165.67c0-.06.74-.08,2-.5a8.22,8.22,0,0,0,4.2-3.33,8,8,0,0,0,1.24-3.5,8.18,8.18,0,0,0-.67-4.19,7.47,7.47,0,0,0-1.25-1.94,7.26,7.26,0,0,0-1.82-1.57,8,8,0,0,0-9.45.68,8,8,0,0,0-2.53,3.92,8,8,0,0,0,1.66,7.52,8.23,8.23,0,0,0,4.64,2.7c1.28.24,2,.15,2,.21a1.89,1.89,0,0,1-.52.07,6.74,6.74,0,0,1-1.53-.08,8.28,8.28,0,0,1-4.88-2.65,8.4,8.4,0,0,1-1.86-3.43,8.51,8.51,0,0,1,0-4.48,7.77,7.77,0,0,1,1-2.23,7.89,7.89,0,0,1,1.67-1.94,8.46,8.46,0,0,1,10-.72,8.45,8.45,0,0,1,3.23,3.74,8.49,8.49,0,0,1,.67,4.43,8.36,8.36,0,0,1-1.36,3.66,8.13,8.13,0,0,1-4.45,3.32,6.32,6.32,0,0,1-1.49.3A2.25,2.25,0,0,1,303.59,165.67Z" style="fill:#fafafa"></path><polygon points="263.62 433.14 262.15 441.63 275.23 442.58 275.27 434.24 263.62 433.14" style="fill:#001293"></polygon><path d="M269.5,433.26a18.63,18.63,0,0,1-.23,3.87,20.48,20.48,0,0,1-.62,3.83,18.63,18.63,0,0,1,.23-3.87A20.29,20.29,0,0,1,269.5,433.26Z" style="fill:#263238"></path><path d="M275.23,441.66a9.07,9.07,0,0,1-1.89-.14l-4.55-.5c-1.77-.21-3.38-.42-4.53-.62a8.59,8.59,0,0,1-1.86-.42,11.2,11.2,0,0,1,1.89.14l4.55.51c1.77.2,3.38.42,4.54.62A8.29,8.29,0,0,1,275.23,441.66Z" style="fill:#263238"></path><path d="M317.6,439.92l1.67-7.42-13.88-3.22-2.55,10.83.84.26c3.78,1.1,19.31,5.32,22.05,5.14C328.78,445.3,317.6,439.92,317.6,439.92Z" style="fill:#001293"></path><path d="M307.89,441.17a5,5,0,0,0-1.08-3.37,4.81,4.81,0,0,0-3-1.76l-.9,3.88Z" style="fill:#ebebeb"></path><path d="M323,442.76s3.85,2.15,3.18,2.71-16.52-3.12-23.36-5.36l.09-.3,18.45,4.45S322.2,442.6,323,442.76Z" style="fill:#ebebeb"></path><path d="M302.71,439.75l.24.08.67.2,2.5.7c2.11.57,5,1.32,8.29,2.08s6.22,1.38,8.36,1.8l2.55.48.7.12.24,0-.24-.07-.69-.15-2.53-.53c-2.14-.45-5.1-1.09-8.35-1.85s-6.18-1.49-8.3-2l-2.51-.64-.68-.17Z" style="fill:#263238"></path><path d="M321.32,444.47a6,6,0,0,1,.75-1.09,6.2,6.2,0,0,1,1.09-.77,2.32,2.32,0,0,0-1.84,1.86Z" style="fill:#263238"></path><path d="M317.71,441.45s.28-.16.56-.44.47-.52.44-.55-.28.16-.56.43S317.68,441.41,317.71,441.45Z" style="fill:#263238"></path><path d="M316.72,440.59s.28,0,.57-.21.5-.33.48-.37-.28.06-.56.22S316.7,440.55,316.72,440.59Z" style="fill:#263238"></path><path d="M316.32,439.12a1.82,1.82,0,0,0,.7.26,1.91,1.91,0,0,0,.74.09c0-.05-.3-.16-.7-.26S316.33,439.07,316.32,439.12Z" style="fill:#263238"></path><path d="M316.29,438.13s.29.28.75.43a1.45,1.45,0,0,0,.86.08,4.63,4.63,0,0,0-.81-.25A6.21,6.21,0,0,0,316.29,438.13Z" style="fill:#263238"></path><path d="M318.46,440.34a2.78,2.78,0,0,0,.89.21,5.48,5.48,0,0,0,1,0,3.57,3.57,0,0,0,.6-.1.48.48,0,0,0,.28-.23.37.37,0,0,0-.05-.39,1.7,1.7,0,0,0-2.13,0,1.65,1.65,0,0,0-.43.53c-.07.15-.09.23-.08.24a2.6,2.6,0,0,1,.58-.67,1.66,1.66,0,0,1,.88-.32,1.41,1.41,0,0,1,1,.32c.12.14,0,.29-.15.35a3.33,3.33,0,0,1-.55.1,5.49,5.49,0,0,1-1,0C318.81,440.39,318.47,440.32,318.46,440.34Z" style="fill:#263238"></path><path d="M318.68,440.44a.88.88,0,0,0,.25-.59,1.65,1.65,0,0,0-.09-.71c-.12-.24-.25-.56-.64-.63a.37.37,0,0,0-.37.35,1,1,0,0,0,.06.43,3,3,0,0,0,.29.64,1.43,1.43,0,0,0,.43.48s-.14-.2-.32-.54a3.33,3.33,0,0,1-.25-.62c-.08-.22-.08-.58.15-.57s.4.31.5.52a1.72,1.72,0,0,1,.12.64A3.39,3.39,0,0,1,318.68,440.44Z" style="fill:#263238"></path><path d="M303.88,436s.4.05,1,.27a4.46,4.46,0,0,1,3,3.74c.07.65,0,1.05,0,1.06a.9.9,0,0,0,.07-.28,4.71,4.71,0,0,0,0-.79,4.34,4.34,0,0,0-3.05-3.84,3.84,3.84,0,0,0-.76-.16A.72.72,0,0,0,303.88,436Z" style="fill:#263238"></path><path d="M306.66,430.58a23,23,0,0,0-.78,2.82,26.38,26.38,0,0,0-.62,2.86,22.34,22.34,0,0,0,.78-2.82A26.38,26.38,0,0,0,306.66,430.58Z" style="fill:#455a64"></path><path d="M310,440.22a7.92,7.92,0,0,0,2,.67,7.62,7.62,0,0,0,2.07.31c0-.05-.91-.2-2-.47S310,440.18,310,440.22Z" style="fill:#263238"></path><path d="M307.23,439.59s0,.21.08.44.05.42.1.43.12-.2.07-.47S307.27,439.56,307.23,439.59Z" style="fill:#263238"></path><path d="M306.51,438.07s0,.19.12.37.23.31.27.28,0-.19-.12-.37S306.55,438.05,306.51,438.07Z" style="fill:#263238"></path><path d="M305.17,437.15c0,.05.19.09.38.21s.3.26.35.24,0-.24-.26-.39S305.17,437.1,305.17,437.15Z" style="fill:#263238"></path><path d="M304.19,436.63s0,.13.15.2.21.1.23.06,0-.13-.14-.2S304.22,436.59,304.19,436.63Z" style="fill:#263238"></path><path d="M389.92,161.44c-1-1.51-7.54,2.52-8.12,2.82s-1-.52-.49-.76c.77-.35,8.73-4.23,7.73-5.72-.56-.82-2,.32-2,.32s-7.19,4.17-7.64,3.45,3.68-3.33,5.13-4.1,1.66-1.76.8-2.12c-.6-.24-5.12,2-6.54,2.83s-5.28,3.06-4.29.4.76-5.09.24-5.7a.89.89,0,0,0-1.5.77,10.83,10.83,0,0,1-.47,2.83,5.29,5.29,0,0,1-1,2.09c-.28.31-.53.61-.77.89l0,0-.75,1c-.94,1.13-1.41,1.77-1.41,1.77h0l-37.62,47.6,2,19.78,43.63-59.27,0-.05a80.3,80.3,0,0,0,8.21-2.53c3.92-1.62,3.78-2,3.51-2.4-.72-1.14-7,2.6-6.11,1S390.72,162.6,389.92,161.44Z" style="fill:#e5baab"></path><path d="M283.47,195.54l5.25-30.7c.59-.76,1.46-1.88,2.44-3.25a7,7,0,0,1,1.71-1.67,10.57,10.57,0,0,1,2.61-1.44.92.92,0,0,0,.24-1.73c-.77-.3-3.23.3-5.5,2.19s-1.38-2.67-1.08-4.34,1-6.87.52-7.37c-.65-.73-1.55-.17-1.8,1.51s-1.38,6.63-2.25,6.43.75-8.66.75-8.66.64-1.76-.36-2c-1.81-.47-2.86,8.66-2.94,9.53-.06.61-1,.43-.92-.22s1.81-8.42,0-8.91c-1.41-.39-.93,7.5-2.18,8.91s.25-6-1.11-6.33c-.51-.11-.9-.13-1.15,4.26a91.65,91.65,0,0,0,.39,9.48c-.21,1.14-6.26,34.23-6.66,39.17S288,234.54,288,234.54l11.72-12Z" style="fill:#e5baab"></path><path d="M275.91,215.47c-.41.9,7,11.27,10.77,19.13L290,256.49c-3.81,7-8.18,15.11-10.29,24.08,15.05,7,32.18,6.18,48.64,3L324.9,259.4l5.75-24,14.21-17.14-10.33-13.74-11.3,12.06-5.33,1.32c-4.86,1.21-13.84.42-18.42-1.63h0l-7.66-9.87Z" style="fill:#001293"></path><path d="M312.39,255.13a8.11,8.11,0,0,1-2.29,1,21.26,21.26,0,0,1-6,1.09,21.49,21.49,0,0,1-6.05-.65,8.13,8.13,0,0,1-2.36-.86,34.5,34.5,0,0,0,8.39,1A35,35,0,0,0,312.39,255.13Z" style="fill:#263238"></path><path d="M334.47,231.25a1.82,1.82,0,0,1-.54.42,7.14,7.14,0,0,1-1.72.76,8.17,8.17,0,0,1-10.11-5.16,6.47,6.47,0,0,1-.4-1.83c0-.44,0-.69,0-.69a22,22,0,0,0,.71,2.39,8.22,8.22,0,0,0,9.67,4.93C333.61,231.72,334.42,231.16,334.47,231.25Z" style="fill:#263238"></path><path d="M342.92,220.39a15.34,15.34,0,0,1-1.36-2.24c-.8-1.39-1.91-3.31-3.21-5.39s-2.54-3.92-3.45-5.25a15,15,0,0,1-1.42-2.2,11.11,11.11,0,0,1,1.72,2c1,1.28,2.28,3.1,3.59,5.19s2.38,4.05,3.1,5.5A11.8,11.8,0,0,1,342.92,220.39Z" style="fill:#263238"></path><path d="M293.34,208a15.53,15.53,0,0,1-2.35,1.39l-5.73,3.17-5.68,3.28a15.11,15.11,0,0,1-2.4,1.29,13.62,13.62,0,0,1,2.21-1.61c1.4-.92,3.38-2.15,5.61-3.41s4.31-2.32,5.82-3A14,14,0,0,1,293.34,208Z" style="fill:#263238"></path><path d="M289.31,227.23a11.23,11.23,0,0,1-.72,2.51,11,11,0,0,1-.85,2.47,5.08,5.08,0,0,1,.35-2.63A4.94,4.94,0,0,1,289.31,227.23Z" style="fill:#263238"></path><path d="M315.27,217.89c-.18-2.23-.28-4.76-.28-4.76s5.39-1.32,5-7-2.45-18.68-2.45-18.68l-10.63-3.77-9.83,10.08,5.36,28,10.17-.67A3,3,0,0,0,315.27,217.89Z" style="fill:#e5baab"></path><path d="M313.79,202.78s0,.11-.05.26a.84.84,0,0,1-.6.36c-.64,0-1.34-.57-1.68-1.4a2.79,2.79,0,0,1-.19-1.25,1.08,1.08,0,0,1,.49-.93.53.53,0,0,1,.42,0,.47.47,0,0,1,.25.2c.1.16.05.27,0,.26s0-.09-.13-.19a.37.37,0,0,0-.48,0,.89.89,0,0,0-.32.76,2.78,2.78,0,0,0,.2,1.11c.3.75.91,1.3,1.39,1.3a.74.74,0,0,0,.52-.22C313.74,202.86,313.77,202.78,313.79,202.78Z" style="fill:#d78776"></path><path d="M316.08,183.08l.22.3a9.52,9.52,0,0,0-6.76-1.7,19.76,19.76,0,0,0-7.21,1.74c-.61.28-1.22.56-1.82.86a7,7,0,0,0,.76-1.67,4.7,4.7,0,0,0-1.45-5.09,4,4,0,0,0-5.21.78,4.48,4.48,0,0,0,0,5.38,5,5,0,0,0,3.57,1.91c-.4.27-.79.55-1.16.85a11.19,11.19,0,0,0-3.76,10.94,20.12,20.12,0,0,0,1.14,3.15,10.54,10.54,0,0,1-.11,2.69,7,7,0,0,1-3.73,5.14,4.83,4.83,0,0,0-2,1.17,2.43,2.43,0,0,0,0,2.51,5.65,5.65,0,0,0,3.67,2.66,5.86,5.86,0,0,0,.73.13,6.78,6.78,0,0,0,.44,3.56,9.61,9.61,0,0,0,9.58,4.41l.15-2.65,1,3S307.47,224.4,315,221c2.51-1.15-1.17-10.27-1.17-10.27-1.87-1.85-1.27-4.92-1.27-4.92-1.58.2-3.12-3.93-2.79-5.31a3.19,3.19,0,0,1,2.94-2.61c.63,0,.47,3.24,2.11,2.88,1.39,0,.87-2.59,1.3-3.89,1-2.83,2.88-6.79,2.19-9.69C320.49,184.58,318.31,181.43,316.08,183.08Z" style="fill:#263238"></path><path d="M290.41,192.21a2.75,2.75,0,0,1-.25-2,4.61,4.61,0,0,1,.84-2,4.24,4.24,0,0,1,2.17-1.58,11.61,11.61,0,0,1,2.61-.31,3.71,3.71,0,0,0,1.89-.56,2.32,2.32,0,0,0,1-1.47s.1.18,0,.54a2.07,2.07,0,0,1-.83,1.23,3.8,3.8,0,0,1-2.06.74,12.58,12.58,0,0,0-2.49.32,4.4,4.4,0,0,0-2.81,3.17A9.16,9.16,0,0,0,290.41,192.21Z" style="fill:#263238"></path><path d="M314.29,220.64a15.51,15.51,0,0,0,1.17-2,6.57,6.57,0,0,0-.14-5.33,26.18,26.18,0,0,0-1.66-2.62,7.33,7.33,0,0,1-1.11-2.38,2.77,2.77,0,0,1,.25-2.37,5,5,0,0,0,.11,2.28,7.87,7.87,0,0,0,1.14,2.2,22.55,22.55,0,0,1,1.74,2.65,6.35,6.35,0,0,1,.65,3.17,6.81,6.81,0,0,1-.65,2.55,5.59,5.59,0,0,1-1,1.45C314.51,220.53,314.31,220.66,314.29,220.64Z" style="fill:#263238"></path><path d="M280.28,280.81,259.15,434.09l21,.64s21.42-134.92,22.83-134.13,15.73,58.22,15.1,61.74c-.36,2-16.53,70.87-15.38,70.6s20.26,1.66,20.26,1.66,16.47-72.43,16.23-74.18c-.57-4.26-11.4-81.47-11.4-81.47Z" style="fill:#263238"></path><path d="M310.86,302.45a11.55,11.55,0,0,1-2.62-.41,61.61,61.61,0,0,1-12.13-4,12,12,0,0,1-2.34-1.23,15.33,15.33,0,0,1,2.49.89c1.52.59,3.62,1.38,6,2.16s4.51,1.4,6.09,1.83A16,16,0,0,1,310.86,302.45Z" style="fill:#455a64"></path><path d="M316.71,434c.14,0,.14.6,0,1.27s-.38,1.2-.52,1.17-.14-.6,0-1.28S316.57,434,316.71,434Z" style="fill:#455a64"></path><path d="M318.8,424.33a11.61,11.61,0,0,1-1,4.83,6.08,6.08,0,0,1,.27-2.47A6.22,6.22,0,0,1,318.8,424.33Z" style="fill:#455a64"></path><path d="M320.9,414.69a11.84,11.84,0,0,1-1,4.82,11.74,11.74,0,0,1,1-4.82Z" style="fill:#455a64"></path><path d="M323,405a6.09,6.09,0,0,1-.27,2.47,6.22,6.22,0,0,1-.77,2.36,6,6,0,0,1,.26-2.47A6.13,6.13,0,0,1,323,405Z" style="fill:#455a64"></path><path d="M325.09,395.4a11.84,11.84,0,0,1-1,4.82,11.74,11.74,0,0,1,1-4.82Z" style="fill:#455a64"></path><path d="M327.18,385.75a11.84,11.84,0,0,1-1.05,4.83,11.84,11.84,0,0,1,1.05-4.83Z" style="fill:#455a64"></path><path d="M329.27,376.11a6.14,6.14,0,0,1-.26,2.46,6.05,6.05,0,0,1-.78,2.36,12,12,0,0,1,1-4.82Z" style="fill:#455a64"></path><path d="M331.37,366.46a11.84,11.84,0,0,1-1.05,4.83,11.84,11.84,0,0,1,1.05-4.83Z" style="fill:#455a64"></path><path d="M332,356.76a6.16,6.16,0,0,1,.6,2.41,15.33,15.33,0,0,1,.16,1.86v.05h0c-.13.36-.23.56-.29.55s-.08-.25,0-.63v.06a14.66,14.66,0,0,1-.35-1.83A6.05,6.05,0,0,1,332,356.76Z" style="fill:#455a64"></path><path d="M330.6,347a6.05,6.05,0,0,1,.59,2.41,5.85,5.85,0,0,1,.08,2.48,6.05,6.05,0,0,1-.59-2.41A5.85,5.85,0,0,1,330.6,347Z" style="fill:#455a64"></path><path d="M329.24,337.21a6,6,0,0,1,.6,2.41,6.05,6.05,0,0,1,.08,2.48,6.16,6.16,0,0,1-.6-2.41A6.27,6.27,0,0,1,329.24,337.21Z" style="fill:#455a64"></path><path d="M327.89,327.43a6.16,6.16,0,0,1,.6,2.41,6.27,6.27,0,0,1,.08,2.48,6,6,0,0,1-.6-2.41A6.05,6.05,0,0,1,327.89,327.43Z" style="fill:#455a64"></path><path d="M326.54,317.65a6.05,6.05,0,0,1,.59,2.41,5.85,5.85,0,0,1,.08,2.48,6.26,6.26,0,0,1-.59-2.41A6.05,6.05,0,0,1,326.54,317.65Z" style="fill:#455a64"></path><path d="M325.18,307.88a6,6,0,0,1,.6,2.41,6.05,6.05,0,0,1,.08,2.48,6.05,6.05,0,0,1-.59-2.41A6.17,6.17,0,0,1,325.18,307.88Z" style="fill:#455a64"></path><path d="M323.83,298.1a6.16,6.16,0,0,1,.6,2.41,6.05,6.05,0,0,1,.08,2.48,6.16,6.16,0,0,1-.6-2.41A6.27,6.27,0,0,1,323.83,298.1Z" style="fill:#455a64"></path><path d="M322.81,290.74c.15,0,.34.52.43,1.2s.06,1.25-.08,1.27-.34-.52-.43-1.2S322.67,290.76,322.81,290.74Z" style="fill:#455a64"></path><polygon points="300.55 435.79 323.87 437.16 325.1 430.48 301.86 429.55 300.55 435.79" style="fill:#455a64"></polygon><polygon points="257.77 434.08 281.1 435.44 282.32 428.77 259.08 427.84 257.77 434.08" style="fill:#455a64"></polygon><path d="M298.62,301.4c-.14,0-.14-.61,0-1.28s.36-1.2.5-1.17.15.6,0,1.27S298.76,301.42,298.62,301.4Z" style="fill:#455a64"></path><path d="M296.65,311a6.12,6.12,0,0,1,.24-2.46,6,6,0,0,1,.74-2.35,11.55,11.55,0,0,1-1,4.81Z" style="fill:#455a64"></path><path d="M294.73,320.65a6.09,6.09,0,0,1,.22-2.46,6.19,6.19,0,0,1,.73-2.36,5.7,5.7,0,0,1-.22,2.46A6,6,0,0,1,294.73,320.65Z" style="fill:#455a64"></path><path d="M292.85,330.29a6,6,0,0,1,.21-2.46,6.08,6.08,0,0,1,.72-2.36,6,6,0,0,1-.21,2.46A6.16,6.16,0,0,1,292.85,330.29Z" style="fill:#455a64"></path><path d="M291,339.94a6.07,6.07,0,0,1,.2-2.46,6.14,6.14,0,0,1,.71-2.37,5.77,5.77,0,0,1-.19,2.46A5.9,5.9,0,0,1,291,339.94Z" style="fill:#455a64"></path><path d="M289.24,349.6a11.55,11.55,0,0,1,.88-4.83,6,6,0,0,1-.19,2.46A6.12,6.12,0,0,1,289.24,349.6Z" style="fill:#455a64"></path><path d="M287.52,359.27a11.75,11.75,0,0,1,.85-4.84,5.94,5.94,0,0,1-.17,2.46A6,6,0,0,1,287.52,359.27Z" style="fill:#455a64"></path><path d="M285.86,368.94a12,12,0,0,1,.82-4.84,5.78,5.78,0,0,1-.15,2.47A5.84,5.84,0,0,1,285.86,368.94Z" style="fill:#455a64"></path><path d="M284.28,378.63a5.71,5.71,0,0,1,.13-2.46,6,6,0,0,1,.65-2.38,6.1,6.1,0,0,1-.13,2.46A6,6,0,0,1,284.28,378.63Z" style="fill:#455a64"></path><path d="M282.76,388.33a11.83,11.83,0,0,1,.75-4.85,11.76,11.76,0,0,1-.75,4.85Z" style="fill:#455a64"></path><path d="M281.31,398.05a6.24,6.24,0,0,1,.1-2.47,5.88,5.88,0,0,1,.62-2.39,6.23,6.23,0,0,1-.1,2.47A5.88,5.88,0,0,1,281.31,398.05Z" style="fill:#455a64"></path><path d="M280,407.77a5.89,5.89,0,0,1,.07-2.47,6.06,6.06,0,0,1,.6-2.39,6,6,0,0,1-.08,2.46A6.17,6.17,0,0,1,280,407.77Z" style="fill:#455a64"></path><path d="M278.66,417.5a5.82,5.82,0,0,1,0-2.46,6.06,6.06,0,0,1,.58-2.4,11.82,11.82,0,0,1-.63,4.86Z" style="fill:#455a64"></path><path d="M277.44,427.25a11.6,11.6,0,0,1,.6-4.87,6.12,6.12,0,0,1,0,2.46A5.76,5.76,0,0,1,277.44,427.25Z" style="fill:#455a64"></path><path d="M276.58,434.61c-.14,0-.19-.58-.11-1.27s.26-1.23.4-1.21.19.59.11,1.27S276.73,434.63,276.58,434.61Z" style="fill:#455a64"></path><path d="M331.86,362a58.6,58.6,0,0,1-6.07-.32,56,56,0,0,1-6.07-.46,41.24,41.24,0,0,1,12.14.78Z" style="fill:#455a64"></path><path d="M330.71,359.5a29.32,29.32,0,0,1-10.23.38,39.9,39.9,0,0,1,5.11-.26A39.48,39.48,0,0,1,330.71,359.5Z" style="fill:#455a64"></path><path d="M277.8,366.8a43.74,43.74,0,0,1-4.86-8.15,43.74,43.74,0,0,1,4.86,8.15Z" style="fill:#455a64"></path><path d="M328.39,284.72s0,.26,0,.7a12.57,12.57,0,0,1-.41,1.87,5.91,5.91,0,0,1-1.41,2.5,4.36,4.36,0,0,1-3.31,1.23,9.71,9.71,0,0,1-3.41-.81,8.6,8.6,0,0,1-2.44-1.49,3.42,3.42,0,0,1-1.33-2.23,6.62,6.62,0,0,0,1.57,1.95,8.84,8.84,0,0,0,2.38,1.32,9.86,9.86,0,0,0,3.24.74,4,4,0,0,0,3-1.05,5.84,5.84,0,0,0,1.4-2.28C328.13,285.69,328.3,284.7,328.39,284.72Z" style="fill:#455a64"></path><path d="M299.12,299s-.17-.12-.42-.37a8.1,8.1,0,0,1-1.11-1.05,6.93,6.93,0,0,1-1.27-1.94,10.55,10.55,0,0,1-.13-2.82c.11-2,.34-3.72.51-5a8.75,8.75,0,0,1,.39-2c.17,0-.12,3.18-.38,7.06a11.51,11.51,0,0,0,.07,2.66,7.67,7.67,0,0,0,1.1,1.84c.34.53.75.82,1,1.15S299.15,298.93,299.12,299Z" style="fill:#455a64"></path></g></svg>